<mxfile host="Electron" agent="Mozilla/5.0 (Macintosh; Intel Mac OS X 10_15_7) AppleWebKit/537.36 (KHTML, like Gecko) draw.io/28.1.2 Chrome/138.0.7204.243 Electron/37.4.0 Safari/537.36" version="28.1.2">
  <diagram name="Page-1" id="BHAaD5WEhAUW0B4swmhn">
    <mxGraphModel dx="835" dy="610" grid="1" gridSize="10" guides="1" tooltips="1" connect="1" arrows="1" fold="1" page="1" pageScale="1" pageWidth="850" pageHeight="1100" math="1" shadow="0">
      <root>
        <mxCell id="0" />
        <mxCell id="1" parent="0" />
        <mxCell id="WWbijRxvFpkm4Z4hjYA9-2" value="" style="verticalLabelPosition=bottom;verticalAlign=top;html=1;shape=mxgraph.basic.polygon;polyCoords=[[0.29,0],[0.61,0],[0.9,0.3],[0.86,0.57],[0.71,0.73],[0.33,0.68],[0.11,0.43],[0.29,0]];polyline=0;fillColor=light-dark(#B3B3B3,#EDEDED);strokeWidth=4;rotation=-10;gradientColor=none;fillStyle=solid;connectable=0;resizable=1;container=0;strokeColor=light-dark(#000000,#EDEDED);shadow=0;opacity=50;" parent="1" vertex="1">
          <mxGeometry x="150" y="500" width="526.27" height="210" as="geometry" />
        </mxCell>
        <mxCell id="wcHSf-dP6BTbZXNanSjt-1" value="&lt;font style=&quot;font-size: 30px; color: rgb(255, 0, 0);&quot;&gt;$$ \vec{t} $$&lt;/font&gt;" style="text;html=1;align=center;verticalAlign=middle;whiteSpace=wrap;rounded=0;strokeWidth=20;" parent="1" vertex="1">
          <mxGeometry x="373.73" y="330" width="60" height="30" as="geometry" />
        </mxCell>
        <mxCell id="wcHSf-dP6BTbZXNanSjt-2" value="&lt;font style=&quot;font-size: 30px; color: rgb(45, 118, 0);&quot;&gt;$$ \vec{n_1} $$&lt;/font&gt;" style="text;html=1;align=center;verticalAlign=middle;whiteSpace=wrap;rounded=0;strokeWidth=20;" parent="1" vertex="1">
          <mxGeometry x="150" y="660" width="60" height="30" as="geometry" />
        </mxCell>
        <mxCell id="wcHSf-dP6BTbZXNanSjt-4" value="&lt;span style=&quot;color: rgb(0, 29, 188); font-size: 30px;&quot;&gt;$$ \vec{n_2} $$&lt;/span&gt;" style="text;html=1;align=center;verticalAlign=middle;whiteSpace=wrap;rounded=0;strokeWidth=20;connectable=0;" parent="1" vertex="1">
          <mxGeometry x="580" y="620" width="60" height="30" as="geometry" />
        </mxCell>
        <mxCell id="qAy7zvkjAzjR_tJNA8Cq-16" value="&lt;font style=&quot;font-size: 60px;&quot;&gt;$$\cdot$$&lt;/font&gt;" style="shape=parallelogram;perimeter=parallelogramPerimeter;whiteSpace=wrap;html=1;fixedSize=1;rotation=-90;size=15;flipH=1;flipV=1;fillColor=none;strokeWidth=3;" parent="1" vertex="1">
          <mxGeometry x="383" y="526.67" width="75" height="60" as="geometry" />
        </mxCell>
        <mxCell id="qAy7zvkjAzjR_tJNA8Cq-17" value="&lt;span style=&quot;font-size: 60px;&quot;&gt;$$\cdot$$&lt;/span&gt;" style="shape=parallelogram;perimeter=parallelogramPerimeter;whiteSpace=wrap;html=1;fixedSize=1;rotation=-90;size=25;flipH=0;flipV=1;fillColor=none;strokeWidth=3;" parent="1" vertex="1">
          <mxGeometry x="317" y="531.67" width="85" height="60" as="geometry" />
        </mxCell>
        <mxCell id="WWbijRxvFpkm4Z4hjYA9-8" value="" style="endArrow=classic;html=1;rounded=0;strokeWidth=5;fillColor=#0050ef;strokeColor=#001DBC;" parent="1" edge="1">
          <mxGeometry width="50" height="50" relative="1" as="geometry">
            <mxPoint x="390" y="580" as="sourcePoint" />
            <mxPoint x="590" y="630" as="targetPoint" />
          </mxGeometry>
        </mxCell>
        <mxCell id="WWbijRxvFpkm4Z4hjYA9-7" value="" style="endArrow=classic;html=1;rounded=0;strokeWidth=5;fillColor=#60a917;strokeColor=#2D7600;" parent="1" edge="1">
          <mxGeometry width="50" height="50" relative="1" as="geometry">
            <mxPoint x="390" y="580" as="sourcePoint" />
            <mxPoint x="200" y="660" as="targetPoint" />
          </mxGeometry>
        </mxCell>
        <mxCell id="WWbijRxvFpkm4Z4hjYA9-12" value="" style="endArrow=classic;html=1;rounded=0;strokeWidth=5;fillColor=#60a917;strokeColor=#FF0000;" parent="1" edge="1">
          <mxGeometry width="50" height="50" relative="1" as="geometry">
            <mxPoint x="390" y="581" as="sourcePoint" />
            <mxPoint x="390" y="361" as="targetPoint" />
          </mxGeometry>
        </mxCell>
        <mxCell id="qAy7zvkjAzjR_tJNA8Cq-18" value="&lt;span style=&quot;font-size: 30px;&quot;&gt;$$ \mathbb{C}_{free,s} $$&lt;/span&gt;" style="text;html=1;align=center;verticalAlign=middle;whiteSpace=wrap;rounded=0;strokeWidth=20;connectable=0;" parent="1" vertex="1">
          <mxGeometry x="520" y="520" width="60" height="30" as="geometry" />
        </mxCell>
      </root>
    </mxGraphModel>
  </diagram>
</mxfile>
